#!OML:ASF E:\id_vita\Project 1\Capture day 1\Session 1\Male1.ASF
:FULLY-SPECIFIED
:DEGREES
614
root -8.86751 12.8797 -8.23758 -38.471 83.1536 -85.6875
lowerback 29.324 0.970515 -4.87166
upperback 5.30219 0.150212 -0.227774
thorax -10.2003 0.380873 2.4763
lowerneck -9.9239 1.62147 -1.37572
upperneck 1.71389 2.09249 9.3662
head 2.20158 1.39993 3.44699
rclavicle -1.27222e-014 -3.89618e-014
rhumerus 69.5105 11.247 -61.1161
rradius 20.2419
rwrist 19.5628
rhand -44.5972 269.372
rfingers 7.12502
rthumb -17.396 61.3864
lclavicle -1.27222e-014 -3.89618e-014
lhumerus 75.491 1.93641 81.2697
lradius 11.0708
lwrist -70.9763
lhand -37.6873 72.0776
lfingers 7.12502
lthumb -10.7376 -101.783
rfemur -14.7662 6.11659 20.426
rtibia 31.3811
rfoot -22.4288 -14.4885
rtoes 8.46974
lfemur -92.4028 12.3242 -22.7927
ltibia 90.5384
lfoot -45.7079 -1.79717
ltoes 21.2506
615
root -8.76928 12.8846 -8.26677 -38.3779 83.4391 -85.7145
lowerback 29.1783 0.858938 -4.84996
upperback 5.31272 0.0226313 -0.244551
thorax -10.1057 0.319323 2.49159
lowerneck -9.86875 1.63452 -1.28793
upperneck 1.65708 2.10797 9.2419
head 2.17171 1.40129 3.3845
rclavicle -1.59028e-015 -4.37326e-015
rhumerus 69.4491 11.3243 -61.0281
rradius 20.3584
rwrist 19.8179
rhand -45.2743 269.536
rfingers 7.12502
rthumb -18.0476 61.2817
lclavicle -1.59028e-015 -4.37326e-015
lhumerus 75.4372 1.86426 80.7691
lradius 11.0843
lwrist -70.4473
lhand -37.6494 71.7382
lfingers 7.12502
lthumb -10.7011 -101.446
rfemur -14.8393 5.88627 20.2279
rtibia 31.7191
rfoot -20.8122 -13.4942
rtoes 14.0994
lfemur -91.9269 11.9705 -23.0502
ltibia 90.4319
lfoot -45.9369 -1.91447
ltoes 22.2821
616
root -8.67657 12.8937 -8.29398 -35.5872 83.684 -82.8745
lowerback 29.3338 0.905503 -5.15538
upperback 5.28483 -0.0249337 -0.300246
thorax -10.2089 0.31003 2.62241
lowerneck -9.78389 1.6493 -1.23456
upperneck 1.6265 2.12672 9.15489
head 2.14487 1.405 3.34175
rclavicle 1.27222e-014 1.43125e-014
rhumerus 69.5449 11.1835 -61.8112
rradius 19.7809
rwrist 20.3765
rhand -44.8692 267.942
rfingers 7.12502
rthumb -17.6578 62.8394
lclavicle 1.27222e-014 1.43125e-014
lhumerus 75.2259 1.7397 80.1105
lradius 11.3012
lwrist -69.6842
lhand -37.566 71.8436
lfingers 7.12502
lthumb -10.6206 -101.555
rfemur -14.8242 5.87629 19.8185
rtibia 32.0794
rfoot -19.2938 -13.8311
rtoes 15.0441
lfemur -91.2428 11.7964 -23.4299
ltibia 90.3302
lfoot -46.0866 -2.08333
ltoes 23.2409
617
root -8.58211 12.9007 -8.31761 -33.0027 83.9104 -80.2607
lowerback 29.3788 0.959828 -5.43555
upperback 5.30677 -0.0436778 -0.340938
thorax -10.2018 0.310537 2.74487
lowerneck -9.78847 1.6257 -1.21206
upperneck 1.63786 2.09066 9.16098
head 2.15177 1.38765 3.33842
rclavicle 7.31528e-014 4.92986e-014
rhumerus 69.608 11.1769 -61.4435
rradius 19.7445
rwrist 20.0153
rhand -44.8147 266.53
rfingers 7.12502
rthumb -17.6054 64.2473
lclavicle 7.31528e-014 4.92986e-014
lhumerus 75.1398 1.64702 79.9612
lradius 11.3255
lwrist -69.3663
lhand -37.7289 71.7346
lfingers 7.12502
lthumb -10.7778 -101.438
rfemur -14.8276 5.88485 19.4684
rtibia 32.4471
rfoot -18.2272 -13.8203
rtoes 16.2782
lfemur -90.5944 11.6411 -23.7755
ltibia 90.2557
lfoot -46.1681 -2.17807
ltoes 23.8829
618
root -8.47727 12.909 -8.34222 -32.1101 84.0813 -79.4502
lowerback 29.1604 0.939597 -5.47291
upperback 5.39094 -0.0597961 -0.342084
thorax -9.99401 0.298448 2.77057
lowerneck -9.92229 1.59587 -1.27831
upperneck 1.6012 2.05784 9.28366
head 2.16602 1.37811 3.39507
rclavicle -1.59028e-014 1.23246e-014
rhumerus 69.5346 11.0657 -61.2823
rradius 19.8872
rwrist 19.9162
rhand -44.769 268.979
rfingers 7.12502
rthumb -17.5613 61.7946
lclavicle -1.59028e-014 1.23246e-014
lhumerus 75.2089 1.5673 79.9198
lradius 11.1991
lwrist -69.2161
lhand -37.4478 71.9945
lfingers 7.12502
lthumb -10.5066 -101.712
rfemur -14.9206 5.69812 19.3208
rtibia 32.8097
rfoot -17.2879 -13.7074
rtoes 17.0259
lfemur -90.0685 11.5188 -24.0264
ltibia 90.2121
lfoot -46.2973 -2.55414
ltoes 24.9402
619
root -8.36845 12.9245 -8.373 -32.9292 84.4108 -80.3577
lowerback 29.0697 0.764772 -5.25523
upperback 5.41046 -0.212266 -0.382315
thorax -9.91605 0.219874 2.6544
lowerneck -9.89792 1.57307 -1.25971
upperneck 1.52416 2.03094 9.34331
head 2.13744 1.36512 3.40868
rclavicle -1.11319e-014 -1.66979e-014
rhumerus 69.2413 11.0091 -61.2682
rradius 20.2082
rwrist 19.9189
rhand -44.2225 267.527
rfingers 7.12502
rthumb -17.0354 63.1999
lclavicle -1.11319e-014 -1.66979e-014
lhumerus 75.1813 1.44841 79.8442
lradius 11.1835
lwrist -69.136
lhand -37.0001 72.5326
lfingers 7.12502
lthumb -10.0747 -102.271
rfemur -15.0114 5.21643 19.237
rtibia 33.1719
rfoot -15.8992 -13.8002
rtoes 17.1331
lfemur -89.4901 11.1315 -24.2339
ltibia 90.1365
lfoot -46.473 -2.63391
ltoes 25.1589
620
root -8.26617 12.9376 -8.40626 -33.4439 84.8196 -80.9678
lowerback 29.0481 0.60836 -5.06811
upperback 5.39734 -0.357088 -0.419555
thorax -9.91143 0.147958 2.55656
lowerneck -9.74436 1.52813 -1.28846
upperneck 1.40372 1.98426 9.33107
head 2.07159 1.33403 3.40078
rclavicle 6.36111e-015 3.02153e-014
rhumerus 68.7729 10.931 -61.0528
rradius 20.8033
rwrist 19.9051
rhand -44.0433 266.734
rfingers 7.12502
rthumb -16.8628 63.9779
lclavicle 6.36111e-015 3.02153e-014
lhumerus 75.1364 1.2359 79.7676
lradius 11.2028
lwrist -68.9514
lhand -37.0159 72.6545
lfingers 7.12502
lthumb -10.09 -102.393
rfemur -15.0989 4.6888 19.0509
rtibia 33.5151
rfoot -14.467 -13.7984
rtoes 17.421
lfemur -88.9297 10.6339 -24.5196
ltibia 90.0299
lfoot -46.6269 -2.08038
ltoes 23.927
